TITLE "Jollity"
PERFORMER "Pugwash"
REM GENRE "Other"
REM DATE "2007"
REM DISCNUMBER 1
REM TOTALDISCS 1
REM DISCID 840A4F0B
FILE "Jollity.flac" WAVE
  TRACK 01 AUDIO
    TITLE "It's Nice To Be Nice"
    SONGWRITER "Thomas Walsh"
    ISRC IEAPD0500001
    INDEX 01 00:00:00
  TRACK 02 AUDIO
    TITLE "Black Dog"
    SONGWRITER "Thomas Walsh"
    ISRC IEAPD0500002
    INDEX 00 03:25:38
    INDEX 01 03:26:24
  TRACK 03 AUDIO
    TITLE "A Rose In A Garden Of Weeds"
    SONGWRITER "Thomas Walsh"
    ISRC IEAPD0500003
    INDEX 00 06:37:43
    INDEX 01 06:38:21
  TRACK 04 AUDIO
    TITLE "I Want You Back In My Life (For Mam)"
    SONGWRITER "Thomas Walsh"
    ISRC IEAPD0500004
    INDEX 00 09:57:27
    INDEX 01 09:59:27
  TRACK 05 AUDIO
    TITLE "This Could Be Good"
    SONGWRITER "Thomas Walsh"
    ISRC IEAPD0500005
    INDEX 00 14:38:10
    INDEX 01 14:40:11
  TRACK 06 AUDIO
    TITLE "Poles Together"
    SONGWRITER "Thomas Walsh"
    ISRC IEAPD0500006
    INDEX 00 17:49:56
    INDEX 01 17:51:57
  TRACK 07 AUDIO
    TITLE "Even I"
    SONGWRITER "Thomas Walsh"
    ISRC IEAPD0500007
    INDEX 00 22:19:39
    INDEX 01 22:20:33
  TRACK 08 AUDIO
    TITLE "Something New"
    SONGWRITER "Thomas Walsh"
    ISRC IEAPD0500008
    INDEX 01 27:29:41
  TRACK 09 AUDIO
    TITLE "Waltz # 714"
    SONGWRITER "Thomas Walsh"
    ISRC IEAPD0500009
    INDEX 00 31:24:27
    INDEX 01 31:26:28
  TRACK 10 AUDIO
    TITLE "Lullaby # 1"
    SONGWRITER "Thomas Walsh"
    ISRC IEAPD0500010
    INDEX 00 35:58:53
    INDEX 01 36:00:54
  TRACK 11 AUDIO
    TITLE "Anchor"
    SONGWRITER "Duncan Maitland/Andy Partridge"
    ISRC IEAPD0500011
    INDEX 01 38:16:73
